<svg width="1244" height="783" viewBox="0 0 1244 783" fill="none" xmlns="http://www.w3.org/2000/svg">
<mask id="mask0_1_72" style="mask-type:alpha" maskUnits="userSpaceOnUse" x="-37" y="0" width="1281" height="937">
<path d="M-36.5 0H1243.5V937H-36.5V0Z" fill="url(#paint0_linear_1_72)"/>
</mask>
<g mask="url(#mask0_1_72)">
<path d="M524.562 842.108C524.672 841.202 525.645 840.599 526.18 840.269C526.756 839.913 527.634 839.391 528.8 838.733C543.833 830.173 605.348 797.605 665.931 766.12C690.88 753.156 712.373 742.099 728.092 734.115C735.649 730.274 741.547 727.324 745.62 725.335C747.678 724.333 749.255 723.579 750.325 723.085C751.971 722.33 753.397 721.686 754.207 723.181C755.016 724.663 753.535 725.596 752.808 726.035C752.232 726.391 751.354 726.913 750.188 727.571C735.155 736.131 673.64 768.699 613.057 800.184C588.107 813.148 566.615 824.205 550.896 832.189C543.339 836.03 537.441 838.98 533.367 840.969C531.31 841.971 529.733 842.725 528.663 843.219C527.017 843.973 525.59 844.618 524.781 843.123C524.576 842.752 524.521 842.41 524.562 842.108Z" fill="url(#paint1_linear_1_72)"/>
<path d="M519.391 844.604C519.501 843.699 520.461 843.109 521.051 842.739C521.654 842.354 522.587 841.819 523.808 841.12C539.581 832.12 603.95 798.126 667.303 765.324C693.35 751.839 715.803 740.329 732.22 732.043C740.121 728.051 746.279 724.992 750.531 722.92C752.671 721.878 754.33 721.096 755.441 720.602C757.197 719.82 758.582 719.189 759.392 720.684C760.201 722.179 758.747 723.085 757.965 723.565C757.362 723.949 756.429 724.484 755.208 725.184C739.435 734.183 675.066 768.178 611.713 800.979C585.653 814.464 563.214 825.974 546.796 834.26C538.895 838.253 532.737 841.312 528.485 843.383C526.345 844.426 524.686 845.208 523.575 845.702C521.819 846.484 520.434 847.115 519.624 845.619C519.419 845.235 519.364 844.906 519.391 844.591V844.604Z" fill="url(#paint2_linear_1_72)"/>
<path d="M514.001 847.197C514.11 846.278 515.098 845.661 515.688 845.29C516.332 844.892 517.306 844.316 518.596 843.575C535.164 834.11 602.509 798.619 668.716 764.474C695.914 750.44 719.355 738.477 736.486 729.876C744.729 725.732 751.162 722.55 755.606 720.423C757.842 719.34 759.57 718.544 760.736 718.023C762.532 717.227 763.945 716.596 764.754 718.091C765.564 719.587 764.082 720.519 763.287 721.013C762.642 721.411 761.668 721.987 760.379 722.728C743.81 732.194 676.465 767.684 610.259 801.83C583.06 815.864 559.62 827.826 542.489 836.428C534.245 840.571 527.813 843.754 523.369 845.88C521.133 846.964 519.405 847.76 518.239 848.281C516.442 849.077 515.029 849.708 514.22 848.212C514.014 847.842 513.96 847.499 514.001 847.197Z" fill="url(#paint3_linear_1_72)"/>
<path d="M508.378 849.859C508.487 848.953 509.461 848.336 510.12 847.924C510.792 847.499 511.834 846.882 513.192 846.1C530.597 836.126 601.042 799.1 670.239 763.569C698.631 748.986 723.1 736.557 740.985 727.64C749.585 723.346 756.306 720.053 760.942 717.831C763.273 716.72 765.084 715.883 766.305 715.348C768.142 714.552 769.583 713.907 770.406 715.416C771.215 716.912 769.761 717.831 768.897 718.379C768.225 718.805 767.182 719.422 765.824 720.204C748.419 730.177 677.974 767.204 608.778 802.735C580.386 817.318 555.917 829.747 538.031 838.664C529.432 842.958 522.711 846.251 518.075 848.473C515.743 849.584 513.933 850.421 512.712 850.956C510.874 851.752 509.434 852.397 508.611 850.888C508.405 850.503 508.35 850.16 508.378 849.859Z" fill="url(#paint4_linear_1_72)"/>
<path d="M502.521 852.629C502.63 851.71 503.632 851.066 504.304 850.64C505.017 850.188 506.114 849.529 507.554 848.706C525.824 838.211 599.519 799.593 671.829 762.622C701.469 747.463 726.995 734.567 745.648 725.321C754.632 720.876 761.627 717.46 766.469 715.169C768.91 714.017 770.789 713.152 772.065 712.604C773.944 711.794 775.425 711.163 776.248 712.658C777.057 714.167 775.576 715.1 774.698 715.677C773.985 716.129 772.888 716.788 771.448 717.611C753.178 728.106 679.483 766.723 607.173 803.695C577.533 818.854 552.007 831.75 533.354 840.996C524.37 845.441 517.375 848.857 512.533 851.148C510.092 852.3 508.213 853.164 506.937 853.713C505.058 854.523 503.577 855.154 502.754 853.658C502.548 853.288 502.493 852.945 502.534 852.629H502.521ZM678.783 762.91C677 763.815 675.203 764.734 673.379 765.667C648.361 778.453 623.193 791.444 600.205 803.393C601.988 802.488 603.785 801.569 605.609 800.636C630.627 787.85 655.809 774.859 678.783 762.91Z" fill="url(#paint5_linear_1_72)"/>
<path d="M496.431 855.47C496.554 854.523 497.569 853.865 498.255 853.439C499.009 852.959 500.162 852.26 501.684 851.382C520.873 840.338 597.942 800.074 673.489 761.621C704.405 745.885 731.041 732.496 750.504 722.92C759.872 718.311 767.182 714.772 772.23 712.412C774.781 711.218 776.742 710.327 778.073 709.764C779.993 708.955 781.515 708.31 782.338 709.819C783.161 711.328 781.652 712.302 780.747 712.878C779.993 713.359 778.841 714.058 777.318 714.936C758.13 725.98 681.047 766.244 605.513 804.697C574.598 820.432 547.961 833.822 528.499 843.397C519.131 848.007 511.82 851.546 506.773 853.906C504.221 855.099 502.26 855.991 500.93 856.553C499.009 857.363 497.487 858.008 496.664 856.499C496.458 856.128 496.403 855.785 496.445 855.47H496.431ZM711.729 746.091C700.715 751.633 688.481 757.834 675.039 764.68C636.95 784.064 598.477 803.915 567.246 820.24C578.26 814.698 590.508 808.497 603.936 801.652C642.025 782.267 680.498 762.416 711.729 746.105V746.091Z" fill="url(#paint6_linear_1_72)"/>
<path d="M490.094 858.378C490.217 857.445 491.232 856.773 491.959 856.292C492.755 855.771 493.976 855.044 495.594 854.111C515.756 842.478 596.351 800.499 675.258 760.55C707.504 744.211 735.279 730.342 755.578 720.423C765.344 715.649 772.97 712 778.237 709.558C780.898 708.323 782.942 707.418 784.341 706.842C786.316 706.032 787.866 705.388 788.689 706.897C789.512 708.419 788.03 709.38 787.043 710.011C786.247 710.532 785.026 711.259 783.408 712.192C763.246 723.825 682.651 765.804 603.744 805.753C571.498 822.092 543.723 835.961 523.424 845.88C513.658 850.654 506.032 854.303 500.765 856.745C498.104 857.98 496.06 858.885 494.661 859.461C492.686 860.271 491.136 860.916 490.314 859.406C490.108 859.022 490.053 858.679 490.08 858.364L490.094 858.378ZM733.359 735.212C717.682 743.004 698.767 752.497 676.795 763.609C629.104 787.754 580.811 812.64 545.63 831.105C561.307 823.313 580.221 813.833 602.18 802.707C649.87 778.563 698.164 753.677 733.345 735.212H733.359Z" fill="url(#paint7_linear_1_72)"/>
<path d="M483.455 861.327C483.593 860.189 485.321 859.201 489.257 856.91C510.448 844.659 594.705 800.924 677.096 759.412C710.728 742.469 739.682 728.092 760.832 717.844C771.009 712.906 778.95 709.133 784.45 706.623C787.221 705.36 789.361 704.414 790.814 703.824C792.831 703.001 794.435 702.356 795.258 703.893C796.205 705.649 794.833 706.431 789.731 709.394C768.554 721.644 684.283 765.379 601.892 806.892C568.261 823.834 539.307 838.212 518.157 848.459C507.979 853.398 500.038 857.171 494.538 859.681C491.767 860.943 489.628 861.89 488.174 862.48C486.158 863.303 484.553 863.948 483.73 862.411C483.51 862.013 483.414 861.657 483.455 861.327ZM750.668 726.624C732.179 735.679 708.025 747.682 678.646 762.485C622.562 790.731 565.614 820.021 528.334 839.679C546.809 830.625 570.976 818.621 600.356 803.819C656.44 775.572 713.375 746.283 750.668 726.624Z" fill="url(#paint8_linear_1_72)"/>
<path d="M476.611 864.414C476.762 863.207 478.614 862.137 482.674 859.777C504.935 846.868 593.032 801.308 679.044 758.232C714.102 740.672 744.277 725.801 766.304 715.197C776.907 710.093 785.191 706.197 790.924 703.618C793.818 702.315 796.054 701.355 797.576 700.751C799.648 699.928 801.28 699.283 802.116 700.82C803.077 702.603 801.513 703.508 796.301 706.527C774.04 719.436 685.943 764.995 599.931 808.072C564.873 825.632 534.698 840.503 512.67 851.107C502.068 856.21 493.784 860.106 488.05 862.686C485.156 863.989 482.921 864.949 481.412 865.553C479.341 866.376 477.709 867.021 476.872 865.484C476.666 865.1 476.57 864.743 476.611 864.414ZM765.591 719.353C745.388 729.094 716.79 743.155 680.594 761.291C616.719 793.283 551.706 826.633 513.411 846.937C533.615 837.196 562.212 823.135 598.408 804.999C662.283 773.007 727.296 739.657 765.591 719.353Z" fill="url(#paint9_linear_1_72)"/>
<path d="M469.493 867.556C469.644 866.307 471.578 865.182 475.857 862.699C499.242 849.09 591.317 801.665 681.115 756.97C717.64 738.793 749.077 723.4 772.037 712.467C783.079 707.199 791.72 703.193 797.686 700.531C800.704 699.187 803.035 698.199 804.613 697.596C806.739 696.773 808.412 696.128 809.249 697.678C810.222 699.503 808.59 700.449 803.145 703.618C779.759 717.227 687.685 764.652 597.887 809.348C561.362 827.525 529.925 842.917 506.965 853.851C495.91 859.119 487.282 863.124 481.316 865.786C478.298 867.13 475.967 868.118 474.389 868.722C472.263 869.545 470.59 870.19 469.753 868.639C469.548 868.255 469.452 867.899 469.493 867.556ZM779.032 712.933C757.828 722.975 725.294 738.806 682.637 760.029C611.287 795.547 538.511 832.779 499.956 853.357C521.16 843.315 553.694 827.497 596.351 806.261C667.701 770.743 740.477 733.511 779.032 712.933Z" fill="url(#paint10_linear_1_72)"/>
<path d="M462.087 870.766C462.237 869.518 464.158 868.338 468.766 865.649C493.359 851.299 589.576 801.94 683.269 755.612C721.303 736.804 754.056 720.904 777.949 709.627C789.457 704.195 798.441 700.065 804.668 697.349C807.809 695.977 810.236 694.962 811.896 694.345C814.077 693.521 815.791 692.877 816.628 694.454C817.588 696.238 816.093 697.212 810.209 700.655C785.616 715.005 689.4 764.364 595.706 810.692C557.659 829.5 524.919 845.4 501.026 856.677C489.518 862.109 480.534 866.239 474.307 868.955C471.166 870.327 468.739 871.342 467.079 871.959C464.898 872.783 463.184 873.427 462.347 871.85C462.141 871.466 462.045 871.109 462.087 870.766ZM791.72 706.979C770.639 716.733 735.252 733.758 684.791 758.699C606.007 797.659 525.44 838.747 487.269 859.325C508.35 849.571 543.737 832.546 594.198 807.605C672.982 768.645 753.549 727.557 791.72 706.979Z" fill="url(#paint11_linear_1_72)"/>
<path d="M454.405 874.045C454.556 872.824 456.449 871.589 461.428 868.667C487.282 853.535 587.819 802.187 685.559 754.213C725.17 734.773 759.254 718.352 784.121 706.746C796.095 701.163 805.449 696.91 811.937 694.125C815.201 692.712 817.739 691.683 819.467 691.052C821.606 690.27 823.458 689.598 824.309 691.176C825.241 692.918 823.966 693.892 817.547 697.651C791.706 712.782 691.155 764.131 593.416 812.105C553.804 831.544 519.72 847.966 494.853 859.571C482.879 865.155 473.525 869.408 467.038 872.193C463.773 873.606 461.236 874.635 459.508 875.266C457.368 876.048 455.516 876.72 454.666 875.142C454.46 874.758 454.364 874.401 454.405 874.045ZM803.46 701.615C782.352 711.15 743.879 729.409 687.068 757.299C601.096 799.498 512.986 844.289 475.528 864.716C496.636 855.182 535.109 836.922 591.921 809.032C677.892 766.834 766.002 722.042 803.46 701.615Z" fill="url(#paint12_linear_1_72)"/>
<path d="M446.464 877.378C446.629 876.089 448.645 874.758 453.843 871.699C481.014 855.744 586.051 802.351 687.973 752.703C729.189 732.619 764.659 715.704 790.527 703.769C802.981 698.021 812.719 693.672 819.467 690.819C822.869 689.378 825.516 688.336 827.313 687.691C829.507 686.923 831.414 686.25 832.264 687.856C833.224 689.639 831.77 690.736 825.146 694.619C797.975 710.574 692.938 763.953 591.016 813.614C549.8 833.698 514.33 850.613 488.462 862.548C476.008 868.296 466.27 872.645 459.522 875.499C456.12 876.939 453.473 877.982 451.676 878.627C449.482 879.395 447.575 880.067 446.725 878.462C446.519 878.078 446.423 877.721 446.464 877.378ZM814.749 696.567C793.887 705.717 752.534 725.06 689.468 755.79C596.365 801.144 500.71 849.598 464.24 869.751C485.102 860.6 526.455 841.243 589.521 810.527C682.624 765.174 778.279 716.72 814.749 696.567Z" fill="url(#paint13_linear_1_72)"/>
<path d="M438.234 880.767C438.372 879.683 439.579 878.832 440.525 878.174C441.705 877.351 443.542 876.198 445.97 874.758C474.554 857.911 584.24 802.447 690.51 751.112C733.386 730.397 770.268 712.974 797.165 700.723C810.113 694.824 820.249 690.366 827.271 687.458C830.81 685.99 833.567 684.92 835.446 684.289C837.613 683.548 839.643 682.862 840.521 684.481C841.385 686.099 839.698 687.293 838.463 688.171C837.284 688.994 835.446 690.146 833.018 691.587C804.448 708.433 694.749 763.898 588.478 815.233C545.602 835.948 508.72 853.37 481.823 865.621C468.876 871.52 458.74 875.979 451.717 878.887C448.178 880.355 445.422 881.425 443.542 882.056C441.375 882.783 439.345 883.483 438.468 881.864C438.262 881.48 438.193 881.123 438.248 880.78L438.234 880.767ZM825.721 691.793C805.312 700.449 761.229 720.753 691.992 754.199C591.756 802.625 488.489 854.715 453.253 874.525C473.662 865.868 517.745 845.565 586.983 812.119C687.219 763.692 790.485 711.602 825.721 691.793Z" fill="url(#paint14_linear_1_72)"/>
<path d="M429.662 884.155C429.826 882.824 431.898 881.329 437.85 877.817C467.902 860.037 582.457 802.433 693.199 749.41C737.775 728.064 776.111 710.148 804.064 697.582C817.519 691.532 828.053 686.963 835.363 684.014C839.053 682.519 841.92 681.435 843.881 680.804C846.103 680.077 848.188 679.404 849.079 681.051C850.026 682.82 848.764 684 841.152 688.5C811.1 706.279 696.545 763.884 585.803 816.906C541.227 838.252 502.891 856.169 474.938 868.735C461.483 874.785 450.949 879.353 443.638 882.303C439.949 883.798 437.082 884.882 435.121 885.513C432.899 886.24 430.814 886.912 429.922 885.266C429.717 884.882 429.621 884.525 429.662 884.155ZM836.529 687.21C816.737 695.249 770.035 716.417 694.68 752.497C587.271 803.928 476.309 859.64 442.459 879.093C462.251 871.053 508.953 849.886 584.308 813.806C691.717 762.375 802.665 706.663 836.529 687.21Z" fill="url(#paint15_linear_1_72)"/>
<path d="M420.829 887.585C421.007 886.186 423.202 884.58 429.456 880.863C461.071 862.096 580.646 802.31 696.024 747.6C742.343 725.637 782.173 707.24 811.21 694.386C825.186 688.199 836.132 683.534 843.73 680.543C847.557 679.034 850.547 677.937 852.591 677.306C854.772 676.634 857.007 675.934 857.913 677.608C858.886 679.419 857.474 680.749 849.546 685.455C817.931 704.222 698.356 764.008 582.978 818.717C536.659 840.681 496.829 859.078 467.792 871.932C453.816 878.119 442.87 882.783 435.272 885.774C431.445 887.283 428.455 888.381 426.411 889.012C424.23 889.684 421.995 890.383 421.09 888.71C420.884 888.326 420.788 887.969 420.829 887.585ZM847.228 682.807C828.19 690.16 778.937 712.069 697.492 750.687C582.854 805.054 464.102 864.4 431.747 883.483C450.784 876.13 500.038 854.221 581.483 815.603C696.12 761.236 814.872 701.89 847.228 682.807Z" fill="url(#paint16_linear_1_72)"/>
<path d="M411.681 891.015C411.859 889.629 413.999 887.942 420.802 883.895C454.063 864.057 578.877 802.063 699.014 745.68C747.116 723.112 788.469 704.249 818.603 691.121C833.115 684.796 844.471 680.063 852.372 677.018C856.349 675.481 859.463 674.384 861.589 673.753C864.154 672.998 866.197 672.546 867.034 674.123C867.967 675.893 866.924 677.182 858.187 682.396C824.926 702.219 700.112 764.227 579.974 820.611C531.873 843.178 490.52 862.041 460.386 875.17C445.874 881.494 434.518 886.227 426.617 889.272C422.64 890.809 419.526 891.906 417.4 892.524C414.835 893.278 412.792 893.731 411.955 892.153C411.749 891.755 411.64 891.399 411.681 891.001V891.015ZM857.913 678.568C839.726 685.167 788.003 707.706 700.468 748.78C580.413 805.122 455.736 867.048 422.557 886.83C422.022 887.146 421.529 887.448 421.062 887.722C439.25 881.123 490.972 858.584 578.507 817.51C698.562 761.168 823.239 699.242 856.418 679.46C856.953 679.144 857.446 678.842 857.913 678.568Z" fill="url(#paint17_linear_1_72)"/>
<path d="M402.258 894.457C402.436 893.003 404.713 891.179 411.9 886.885C446.903 865.923 577.135 801.678 702.196 743.649C752.108 720.492 795.025 701.176 826.27 687.814C874.605 667.14 875.469 668.786 876.484 670.693C877.444 672.518 876.278 673.958 867.116 679.446C832.113 700.408 701.881 764.652 576.82 822.682C526.908 845.839 483.991 865.154 452.746 878.516C404.411 899.19 403.547 897.544 402.532 895.637C402.326 895.239 402.217 894.869 402.271 894.457H402.258ZM868.638 674.479C851.37 680.255 797.22 703.343 703.623 746.763C578.658 804.738 448.576 868.927 413.656 889.834C412.366 890.602 411.269 891.275 410.364 891.865C427.632 886.089 481.782 863.001 575.379 819.581C700.345 761.606 830.426 697.417 865.347 676.51C866.636 675.742 867.733 675.069 868.638 674.479Z" fill="url(#paint18_linear_1_72)"/>
<path d="M392.533 897.86C392.725 896.31 395.139 894.348 402.724 889.794C439.565 867.638 575.407 801.103 705.529 741.468C757.293 717.749 801.787 698.021 834.184 684.44C884.206 663.464 885.18 665.302 886.208 667.25C887.196 669.13 885.907 670.735 876.278 676.524C839.437 698.68 703.595 765.215 573.473 824.85C521.709 848.569 477.215 868.297 444.818 881.878C394.796 902.854 393.822 901.016 392.794 899.067C392.588 898.67 392.478 898.286 392.533 897.86ZM879.433 670.502C863.152 675.413 806.602 698.927 706.956 744.582C576.929 804.162 441.252 870.629 404.493 892.729C402.381 894.005 400.79 895.007 399.583 895.816C415.864 890.905 472.414 867.391 572.06 821.736C702.087 762.156 837.778 695.689 874.522 673.588C876.635 672.313 878.226 671.311 879.433 670.502Z" fill="url(#paint19_linear_1_72)"/>
<path d="M382.548 901.262C382.726 899.863 384.317 898.642 385.36 897.833C387.06 896.529 389.721 894.773 393.301 892.606C432.09 869.174 573.747 800.334 709.054 739.149C762.697 714.895 808.796 694.797 842.345 681.024C858.502 674.384 871.176 669.473 880.009 666.4C893.848 661.584 895.371 662.229 896.221 663.862C897.208 665.741 894.973 667.47 893.642 668.499C891.942 669.802 889.281 671.558 885.701 673.725C846.912 697.157 705.255 765.997 569.948 827.182C516.305 851.436 470.206 871.534 436.657 885.308C420.5 891.947 407.826 896.859 398.993 899.932C385.154 904.747 383.631 904.102 382.781 902.47C382.562 902.058 382.507 901.66 382.548 901.262ZM890.323 666.674C875.085 670.652 816.189 694.482 710.467 742.291C575.256 803.421 433.763 872.179 395.07 895.555C392.067 897.366 390.037 898.697 388.665 899.657C403.904 895.679 462.799 871.85 568.521 824.04C703.732 762.91 845.225 694.152 883.918 670.776C886.922 668.965 888.952 667.634 890.323 666.674Z" fill="url(#paint20_linear_1_72)"/>
<path d="M372.193 904.541C372.412 902.826 375.045 900.508 383.632 895.295C424.477 870.505 572.143 799.347 712.785 736.68C768.334 711.932 816.052 691.491 850.767 677.58C904.245 656.152 905.507 658.566 906.522 660.514C907.537 662.462 906.179 664.452 895.343 671.009C854.497 695.799 706.832 766.957 566.19 829.624C510.641 854.372 462.923 874.813 428.208 888.724C374.73 910.152 373.468 907.738 372.453 905.79C372.247 905.392 372.138 904.98 372.193 904.527V904.541ZM901.269 663.039C896.235 664.15 883.04 668.265 848.435 682.217C814.077 696.073 767.648 715.993 714.184 739.822C573.651 802.434 426.164 873.496 385.415 898.231C381.519 900.604 379.16 902.209 377.734 903.279C382.767 902.168 395.962 898.052 430.567 884.1C464.926 870.245 511.354 850.325 564.818 826.496C705.351 763.884 852.838 692.822 893.588 668.087C897.483 665.714 899.842 664.109 901.269 663.039Z" fill="url(#paint21_linear_1_72)"/>
<path d="M361.59 907.737C361.823 905.913 364.635 903.389 373.729 897.833C416.756 871.589 570.634 798.112 716.735 734.06C774.205 708.859 823.555 688.144 859.449 674.123C876.745 667.374 890.323 662.421 899.801 659.389C914.463 654.711 916.219 655.562 917.11 657.277C918.18 659.321 916.672 661.516 905.233 668.498C862.206 694.742 708.328 768.219 562.226 832.271C504.757 857.472 455.407 878.187 419.512 892.208C402.217 898.957 388.638 903.91 379.16 906.942C364.498 911.62 362.742 910.769 361.851 909.054C361.631 908.643 361.522 908.218 361.577 907.751L361.59 907.737ZM912.461 659.499C907.935 660.24 894.836 663.889 857.076 678.733C821.538 692.698 773.492 712.919 718.121 737.188C572.129 801.199 418.443 874.566 375.526 900.755C370.547 903.786 367.927 905.68 366.528 906.818C371.054 906.077 384.153 902.428 421.913 887.585C457.451 873.619 505.497 853.398 560.868 829.13C706.86 765.119 860.546 691.752 903.463 665.563C908.442 662.531 911.062 660.638 912.461 659.499Z" fill="url(#paint22_linear_1_72)"/>
<path d="M350.728 910.797C350.974 908.835 353.965 906.077 363.634 900.151C408.965 872.357 569.249 796.575 720.933 731.234C780.336 705.649 831.332 684.687 868.406 670.639C886.278 663.862 900.309 658.923 910.116 655.96C925.189 651.405 927.096 652.379 928.001 654.135C929.112 656.275 927.466 658.731 915.369 666.153C870.038 693.947 709.754 769.728 558.07 835.07C498.667 860.655 447.671 881.617 410.597 895.665C392.726 902.442 378.694 907.381 368.887 910.344C353.814 914.899 351.907 913.925 351.002 912.169C350.782 911.743 350.659 911.291 350.728 910.797ZM923.818 656.138C919.826 656.508 907.016 659.568 866.019 675.221C829.302 689.241 779.609 709.695 722.291 734.389C570.73 799.676 410.652 875.361 365.431 903.087C359.259 906.873 356.461 909.013 355.185 910.179C359.177 909.809 371.987 906.75 412.984 891.097C449.701 877.076 499.394 856.622 556.713 831.928C708.273 766.641 868.351 690.956 913.572 663.231C919.744 659.444 922.542 657.304 923.818 656.138Z" fill="url(#paint23_linear_1_72)"/>
<path d="M339.59 913.705C339.851 911.592 343.06 908.574 353.333 902.236C401.12 872.782 568.014 794.723 725.376 728.229C786.7 702.315 839.342 681.202 877.595 667.168C896.029 660.404 910.527 655.507 920.677 652.626C936.162 648.222 938.247 649.43 939.138 651.158C940.304 653.422 938.507 656.152 925.669 664.067C877.883 693.521 710.988 771.58 553.626 838.074C492.303 863.989 439.661 885.102 401.408 899.136C382.973 905.899 368.476 910.797 358.326 913.678C342.841 918.081 340.756 916.874 339.864 915.145C339.631 914.693 339.522 914.226 339.576 913.705H339.59ZM935.325 653.01C931.979 653.079 919.73 655.26 875.263 671.695C837.367 685.702 786.001 706.348 726.707 731.398C569.482 797.838 402.793 875.787 355.13 905.172C347.655 909.781 344.788 912.168 343.677 913.335C347.024 913.266 359.272 911.085 403.739 894.65C441.636 880.643 493.002 859.997 552.296 834.946C709.521 768.507 876.21 690.558 923.872 661.173C931.348 656.563 934.214 654.176 935.325 653.01Z" fill="url(#paint24_linear_1_72)"/>
<path d="M328.192 916.394C328.48 914.116 331.895 910.81 342.854 904.02C393.219 872.796 566.931 792.487 730.067 725.019C793.325 698.858 847.585 677.662 887.018 663.724C947.436 642.364 949.439 646.274 950.509 648.373C951.743 650.774 949.782 653.833 936.148 662.284C885.784 693.507 712.072 773.816 548.935 841.284C485.678 867.446 431.418 888.641 391.985 902.579C331.566 923.939 329.564 920.029 328.494 917.93C328.247 917.45 328.137 916.956 328.206 916.394H328.192ZM946.984 650.061C944.254 649.8 932.76 651.048 884.81 668.128C845.733 682.052 792.666 702.822 731.37 728.174C568.371 795.601 394.892 875.787 344.651 906.928C335.654 912.511 332.856 915.132 331.992 916.229C334.721 916.49 346.215 915.241 394.166 898.162C433.242 884.237 486.309 863.467 547.605 838.115C710.604 770.688 884.083 690.503 934.324 659.362C943.322 653.778 946.12 651.158 946.984 650.061Z" fill="url(#paint25_linear_1_72)"/>
<path d="M316.575 918.85C316.89 916.366 320.538 912.745 332.224 905.46C385.332 872.343 566.039 789.853 735.046 721.576C800.196 695.25 856.088 674.068 896.66 660.309C958.765 639.25 961.028 643.682 962.112 645.808C963.415 648.373 961.303 651.776 946.764 660.844C893.656 693.96 712.949 776.45 543.943 844.728C478.792 871.04 422.9 892.235 382.328 905.995C320.223 927.053 317.96 922.622 316.876 920.496C316.616 919.988 316.492 919.453 316.575 918.85ZM958.807 647.413C956.722 646.878 946.257 646.988 894.726 664.602C854.47 678.362 799.689 699.16 736.321 724.772C567.465 792.981 387.006 875.348 334.035 908.382C323.282 915.091 320.758 917.917 320.182 918.918C322.267 919.453 332.732 919.343 384.262 901.729C424.518 887.969 479.3 867.172 542.667 841.559C711.523 773.35 891.983 690.983 944.953 657.949C955.707 651.241 958.23 648.414 958.807 647.413Z" fill="url(#paint26_linear_1_72)"/>
<path d="M304.752 921.003C305.095 918.315 309.004 914.295 321.485 906.475C377.501 871.328 565.408 786.739 740.327 717.899C807.342 691.532 864.826 670.46 906.535 656.975C926.657 650.472 942.512 645.931 953.663 643.476C969.67 639.95 972.852 641.418 973.922 643.531C975.307 646.274 973.044 650.102 957.504 659.842C901.474 694.989 713.581 779.578 538.662 848.418C471.646 874.785 414.163 895.857 372.453 909.343C352.332 915.845 336.477 920.386 325.326 922.842C309.319 926.367 306.137 924.899 305.067 922.787C304.793 922.252 304.669 921.662 304.752 921.003ZM970.753 645.053C969.272 644.313 960.178 643.092 905.068 661.049C863.632 674.548 807.109 695.305 741.588 721.082C566.821 789.853 379.174 874.319 323.309 909.37C310.485 917.409 308.537 920.455 308.236 921.237C309.717 921.977 318.81 923.198 373.921 905.241C415.356 891.742 471.88 870.985 537.4 845.208C712.168 776.437 899.801 691.971 955.679 656.92C968.504 648.867 970.451 645.835 970.753 645.053Z" fill="url(#paint27_linear_1_72)"/>
<path d="M292.723 922.8C293.065 920.07 296.81 915.749 310.663 906.996C369.778 869.668 565.037 783.076 745.936 713.962C814.776 687.663 873.795 666.825 916.603 653.723C937.259 647.399 953.553 643.064 965.033 640.814C981.492 637.604 984.812 639.387 985.895 641.555C987.212 644.175 985.991 648.154 968.311 659.307C909.196 696.635 713.937 783.227 533.038 852.341C464.198 878.64 405.179 899.478 362.372 912.58C341.716 918.904 325.421 923.239 313.941 925.489C297.482 928.699 294.163 926.916 293.079 924.748C292.791 924.186 292.627 923.541 292.723 922.786V922.8ZM982.809 643.078C982.123 642.447 975.457 639.182 916.013 657.482C873.411 670.597 815.023 691.23 747.157 717.158C566.436 786.204 371.438 872.672 312.487 909.891C297.112 919.59 296.193 922.704 296.151 923.225C296.837 923.856 303.489 927.121 362.948 908.821C405.549 895.706 463.938 875.073 531.804 849.145C712.524 780.085 907.523 693.631 966.474 656.412C981.835 646.713 982.754 643.599 982.809 643.078Z" fill="url(#paint28_linear_1_72)"/>
<path d="M280.57 924.2C280.941 921.223 284.918 916.408 299.814 906.942C362.207 867.295 565.01 778.824 751.902 709.723C822.498 683.63 882.999 663.162 926.862 650.555C948.026 644.464 964.745 640.389 976.555 638.414C993.411 635.601 996.868 637.618 998.034 639.964C999.419 642.749 998.253 647.235 979.161 659.362C916.767 699.009 713.964 787.48 527.072 856.581C456.476 882.674 395.976 903.142 352.112 915.749C330.949 921.84 314.229 925.915 302.42 927.89C285.563 930.702 282.107 928.686 280.941 926.34C280.639 925.723 280.461 925.037 280.557 924.2H280.57ZM994.989 641.747C995.016 641.569 994.989 641.5 994.989 641.487C994.989 641.459 993.576 639.045 977.144 641.802C965.459 643.75 948.876 647.811 927.822 653.861C884.041 666.441 823.623 686.882 753.109 712.947C566.409 781.965 363.894 870.299 301.679 909.836C282.834 921.813 284.027 924.79 284.04 924.817C284.04 924.845 285.453 927.259 301.885 924.515C313.571 922.567 330.153 918.507 351.207 912.457C394.988 899.877 455.407 879.436 525.92 853.371C712.62 784.352 915.135 696.018 977.35 656.481C993.233 646.384 994.879 642.68 995.003 641.747H994.989Z" fill="url(#paint29_linear_1_72)"/>
<path d="M268.295 925.132C268.706 921.867 272.917 916.517 288.978 906.228C354.856 864.071 565.367 773.885 758.226 705.196C830.495 679.46 892.408 659.526 937.273 647.55C958.93 641.775 976.061 638.002 988.186 636.342C1005.52 633.969 1009.1 636.424 1010.27 638.825C1011.71 641.761 1010.71 646.837 989.983 660.103C924.092 702.26 713.594 792.446 520.736 861.135C448.467 886.871 386.553 906.804 341.689 918.781C320.031 924.556 302.9 928.329 290.775 929.989C273.438 932.362 269.859 929.907 268.693 927.506C268.364 926.847 268.172 926.079 268.281 925.132H268.295ZM1007.24 640.787C1007.28 640.499 1007.21 640.361 1007.2 640.334C1006.85 639.621 1001.93 633.845 938.151 650.87C893.368 662.819 831.551 682.725 759.378 708.433C566.725 777.054 356.529 867.089 290.83 909.123C270.27 922.279 271.71 925.846 271.779 925.997C272.122 926.71 277.046 932.486 340.824 915.461C385.607 903.512 447.424 883.606 519.597 857.898C712.25 789.277 922.446 699.242 988.145 657.208C1004.99 646.439 1007.07 642.09 1007.24 640.787Z" fill="url(#paint30_linear_1_72)"/>
<path d="M255.937 925.421C256.389 921.772 260.97 915.859 278.239 904.733C347.833 859.887 566.176 768.192 764.974 700.326C838.806 675.125 902.036 655.878 947.834 644.697C969.957 639.292 987.473 635.903 999.899 634.614C1013.52 633.201 1020.73 634.339 1022.59 638.167C1024.19 641.487 1023.16 647.139 1000.75 661.585C931.155 706.431 712.812 798.126 514.014 865.992C440.182 891.193 376.952 910.44 331.154 921.621C309.031 927.026 291.516 930.415 279.089 931.704C265.469 933.117 258.255 931.978 256.403 928.151C256.033 927.383 255.799 926.505 255.937 925.421ZM1019.6 640.458C1019.65 640.046 1019.57 639.786 1019.51 639.662C1018.87 638.332 1012.41 632.446 948.657 648.031C902.955 659.198 839.821 678.404 766.085 703.577C567.506 771.375 349.493 862.905 280.09 907.628C258.447 921.58 259.119 925.942 259.475 926.669C260.12 928 266.58 933.885 330.331 918.301C376.033 907.134 439.167 887.928 512.903 862.754C711.482 794.957 929.496 703.426 998.898 658.704C1016.59 647.304 1019.36 642.31 1019.6 640.458Z" fill="url(#paint31_linear_1_72)"/>
<path d="M243.606 925.201C244.278 919.824 252.083 912.429 267.636 902.346C341.181 854.619 567.493 761.634 772.147 695.085C847.406 670.611 911.857 652.256 958.505 642.022C981.04 637.069 998.925 634.134 1011.64 633.283C1025.52 632.364 1032.93 633.887 1034.93 638.071C1037.56 643.586 1030.07 651.817 1011.37 663.958C937.821 711.685 711.509 804.67 506.855 871.219C431.596 895.693 367.145 914.048 320.497 924.282C297.962 929.235 280.077 932.17 267.362 933.021C253.482 933.94 246.075 932.417 244.073 928.233C243.634 927.3 243.469 926.299 243.606 925.201ZM1031.97 640.732C1032.04 640.17 1031.94 639.786 1031.83 639.552C1030.8 637.399 1022.54 631.472 959.232 645.369C912.694 655.59 848.366 673.904 773.203 698.35C568.796 764.831 342.827 857.637 269.502 905.227C246.39 920.222 246.569 925.503 247.172 926.765C248.201 928.919 256.458 934.846 319.77 920.949C366.308 910.728 430.636 892.414 505.799 867.967C710.206 801.487 936.175 708.681 1009.5 661.091C1028.25 648.922 1031.68 643.147 1031.98 640.732H1031.97Z" fill="url(#paint32_linear_1_72)"/>
<path d="M231.262 924.131C232.03 918.068 240.465 909.932 257.267 898.944C335.009 848.103 569.399 754.13 779.787 689.461C856.322 665.933 921.842 648.689 969.231 639.58C992.136 635.176 1010.35 632.775 1023.34 632.432C1037.28 632.076 1045.08 634.092 1047.21 638.633C1050.17 644.944 1042.08 654.08 1021.74 667.374C943.994 718.215 709.603 812.187 499.215 876.857C422.681 900.384 357.16 917.629 309.772 926.738C286.866 931.141 268.651 933.542 255.663 933.885C241.727 934.242 233.923 932.211 231.797 927.684C231.276 926.587 231.097 925.407 231.262 924.131ZM1044.31 641.775C1044.41 641.02 1044.28 640.485 1044.11 640.101C1042.95 637.645 1034.2 630.594 969.889 642.954C922.61 652.036 857.227 669.253 780.802 692.753C570.675 757.34 336.668 851.134 259.16 901.825C234.499 917.944 233.991 924.268 234.924 926.244C236.076 928.699 244.827 935.751 309.141 923.39C356.419 914.309 421.803 897.092 498.228 873.592C708.355 809.005 942.361 715.21 1019.87 664.52C1039.74 651.529 1043.93 644.889 1044.33 641.775H1044.31Z" fill="url(#paint33_linear_1_72)"/>
<path d="M219.027 922.32C219.891 915.434 229.191 906.228 247.214 894.348C329.426 840.16 571.992 745.529 787.907 683.383C865.539 661.036 931.951 645.122 979.998 637.371C1003.23 633.612 1021.72 631.842 1034.96 632.089C1049.08 632.364 1057.08 634.915 1059.37 639.895C1062.66 647.056 1053.65 657.551 1031.79 671.956C949.576 726.144 707.011 820.775 491.095 882.92C413.464 905.268 347.051 921.182 299.005 928.933C275.77 932.692 257.281 934.461 244.045 934.214C229.918 933.94 221.921 931.388 219.631 926.408C219.055 925.146 218.849 923.788 219.041 922.32H219.027ZM1056.56 643.654C1056.68 642.68 1056.53 641.926 1056.26 641.336C1054.61 637.741 1043.93 630.512 980.533 640.759C932.637 648.497 866.348 664.383 788.853 686.689C573.199 748.752 331.072 843.191 249.093 897.229C222.964 914.446 221.359 922.018 222.731 924.995C224.377 928.59 235.061 935.819 298.456 925.572C346.352 917.834 412.641 901.948 490.135 879.642C705.79 817.579 947.916 723.126 1029.9 669.102C1050.9 655.26 1056.05 647.66 1056.56 643.654Z" fill="url(#paint34_linear_1_72)"/>
<path d="M206.93 919.481C207.918 911.647 218.026 901.413 237.571 888.435C324.557 830.653 575.325 735.734 796.562 676.853C875.057 655.96 942.197 641.638 990.737 635.437C1039.48 629.209 1066.6 631.404 1071.36 641.953C1075.1 650.253 1065.3 662.01 1041.4 677.882C954.418 735.665 703.65 830.584 482.413 889.464C403.917 910.358 336.778 924.68 288.238 930.881C239.491 937.109 212.375 934.914 207.616 924.365C206.93 922.855 206.711 921.237 206.916 919.494L206.93 919.481ZM1068.62 646.371C1068.78 645.108 1068.57 644.121 1068.23 643.352C1061.17 627.686 974.717 632.981 797.453 680.159C576.504 738.957 326.203 833.657 239.478 891.275C210.688 910.399 209.125 919.316 210.757 922.938C217.807 938.604 304.271 933.309 481.535 886.131C702.484 827.333 952.785 732.633 1039.51 675.015C1062.28 659.897 1068.01 651.145 1068.62 646.371Z" fill="url(#paint35_linear_1_72)"/>
<path d="M195.093 915.584C196.218 906.612 207.245 895.212 228.505 880.986C320.579 819.307 579.562 724.58 805.833 669.815C884.946 650.664 952.593 638.221 1001.46 633.818C1050.47 629.4 1077.94 633.132 1083.1 644.889C1087.35 654.574 1076.69 667.799 1050.5 685.345C958.422 747.024 699.425 841.751 473.168 896.516C394.055 915.667 326.409 928.109 277.539 932.513C228.532 936.931 201.059 933.199 195.902 921.442C195.107 919.618 194.832 917.67 195.093 915.584ZM1080.47 650.198C1080.64 648.757 1080.48 647.44 1079.96 646.261C1077.42 640.485 1063.9 631.637 1001.76 637.234C953.059 641.624 885.591 654.039 806.642 673.149C580.701 727.831 322.212 822.353 230.411 883.839C210.551 897.147 199.509 908.382 198.536 916.119C198.357 917.56 198.522 918.877 199.043 920.057C201.581 925.832 215.104 934.681 277.237 929.083C325.942 924.694 393.411 912.278 472.359 893.168C698.287 838.486 956.79 743.965 1048.58 682.478C1068.44 669.171 1079.48 657.935 1080.45 650.198H1080.47Z" fill="url(#paint36_linear_1_72)"/>
<path d="M183.613 910.701C184.916 900.343 197.137 887.297 220.097 871.795C317.603 805.918 584.789 711.904 815.695 662.202C895.124 645.109 963.018 634.833 1012.05 632.487C1061.14 630.141 1088.87 635.602 1094.47 648.73C1099.24 659.938 1087.28 675.344 1058.89 694.523C961.385 760.4 694.2 854.413 463.293 904.116C383.865 921.209 315.971 931.485 266.937 933.83C217.848 936.176 190.114 930.716 184.518 917.588C183.599 915.448 183.298 913.157 183.613 910.715V910.701ZM1091.97 655.288C1092.21 653.408 1091.99 651.666 1091.32 650.075C1086.49 638.743 1058.4 633.708 1012.22 635.917C963.374 638.249 895.673 648.497 816.422 665.549C585.872 715.169 319.222 808.964 222.018 874.635C200.072 889.451 188.167 901.88 187.015 911.03C186.781 912.91 187.001 914.652 187.673 916.243C192.501 927.575 220.591 932.609 266.772 930.401C315.615 928.069 383.316 917.821 462.566 900.769C693.117 851.148 959.767 757.354 1056.97 691.683C1078.92 676.867 1090.82 664.438 1091.97 655.288Z" fill="url(#paint37_linear_1_72)"/>
<path d="M172.544 904.376C174.053 892.414 187.44 877.749 212.54 860.642C315.848 790.238 591.166 697.541 826.256 653.998C905.671 639.292 973.537 631.513 1022.5 631.513C1056.16 631.513 1097.87 635.341 1105.39 653.586C1110.83 666.839 1097.73 684.357 1066.45 705.676C963.141 776.08 687.822 868.777 452.732 912.32C373.317 927.026 305.451 934.804 256.485 934.804C222.813 934.804 181.117 930.977 173.6 912.731C172.517 910.111 172.174 907.326 172.544 904.376ZM1103.04 661.53C1103.34 659.156 1103.07 656.934 1102.23 654.89C1096.94 642.022 1068.63 634.929 1022.52 634.943C973.743 634.943 906.096 642.708 826.887 657.373C592.195 700.847 317.466 793.297 214.487 863.481C185.135 883.483 172.105 900.055 176.782 911.442C182.077 924.31 210.386 931.402 256.499 931.388C305.273 931.388 372.919 923.624 452.129 908.958C686.821 865.484 961.55 773.034 1064.53 702.85C1088.59 686.456 1101.68 672.354 1103.04 661.543V661.53Z" fill="url(#paint38_linear_1_72)"/>
<path d="M161.997 896.625C163.739 882.715 178.483 866.17 205.997 847.238C315.519 771.937 598.82 681.257 837.545 645.108C916.562 633.146 984.071 628.207 1032.78 630.827C1080.7 633.406 1109.39 643.311 1115.78 659.472C1122.01 675.221 1107.62 695.277 1073.02 719.065C963.498 794.367 680.196 885.047 441.471 921.195C362.454 933.158 294.945 938.097 246.24 935.476C198.317 932.897 169.623 922.992 163.231 906.832C161.956 903.608 161.544 900.206 161.997 896.625ZM1113.56 669.184C1113.93 666.18 1113.62 663.368 1112.58 660.734C1106.72 645.918 1079.05 636.767 1032.58 634.257C984.112 631.65 916.85 636.575 838.052 648.51C599.766 684.604 317.096 775.023 207.945 850.078C181.501 868.269 167.058 884.32 165.44 897.133C165.056 900.137 165.385 902.95 166.427 905.583C172.284 920.4 199.949 929.55 246.418 932.06C294.89 934.667 362.153 929.742 440.95 917.807C679.236 881.713 961.906 791.294 1071.06 716.239C1097.5 698.048 1111.94 681.998 1113.56 669.184Z" fill="url(#paint39_linear_1_72)"/>
<path d="M152.135 887.53C152.889 881.562 155.55 875.224 160.118 868.557C168.004 857.047 181.652 844.522 200.662 831.339C316.822 750.742 607.941 662.901 849.615 635.533C927.836 626.671 994.632 624.928 1042.79 630.484C1090.09 635.944 1118.68 648.387 1125.48 666.455C1128.98 675.742 1126.76 686.278 1118.88 697.761C1111 709.27 1097.35 721.796 1078.34 734.979C962.181 815.576 671.061 903.416 429.388 930.785C351.166 939.647 284.37 941.389 236.213 935.833C188.907 930.373 160.323 917.931 153.52 899.863C152.053 895.967 151.6 891.838 152.135 887.53ZM1123.42 678.362C1123.9 674.603 1123.51 671.023 1122.24 667.662C1115.94 650.87 1088.31 639.182 1042.38 633.887C994.482 628.358 927.96 630.1 849.985 638.935C608.791 666.249 318.371 753.828 202.61 834.151C173.45 854.386 157.457 872.741 155.55 887.955C155.084 891.728 155.468 895.295 156.73 898.656C163.039 915.447 190.663 927.136 236.597 932.431C284.493 937.96 351.015 936.217 428.99 927.383C670.184 900.069 960.603 812.489 1076.37 732.167C1105.53 711.932 1121.52 693.576 1123.42 678.362Z" fill="url(#paint40_linear_1_72)"/>
<path d="M143.055 876.83C145.469 857.651 163.684 835.756 196.78 812.572C256.54 770.716 358.724 728.161 484.484 692.767C610.177 657.387 744.441 633.379 862.549 625.134C1017.99 614.296 1119.63 632.748 1134.41 674.521C1142.33 696.896 1124.29 724.292 1082.24 753.746C1022.48 795.602 920.293 838.157 794.532 873.551C668.84 908.931 534.575 932.939 416.467 941.184C261.026 952.021 159.391 933.57 144.605 891.797C142.918 887.022 142.411 882.029 143.055 876.83ZM1132.56 689.173C1133.15 684.467 1132.7 679.954 1131.17 675.674C1124.44 656.66 1097.04 642.159 1051.91 633.763C1004.88 625.011 939.481 623.214 862.782 628.564C619.462 645.534 321.581 729.341 198.742 815.384C166.482 837.978 148.734 859.037 146.457 877.145C145.867 881.851 146.32 886.364 147.842 890.644C154.577 909.658 181.981 924.159 227.106 932.555C274.138 941.307 339.535 943.104 416.234 937.754C659.554 920.784 957.435 836.977 1080.27 750.934C1112.53 728.339 1130.28 707.281 1132.56 689.173Z" fill="url(#paint41_linear_1_72)"/>
<path d="M134.826 864.263C137.679 841.6 157.937 816.495 194.572 790.594C258.022 745.721 363.908 702.631 492.7 669.267C621.424 635.917 757.691 616.258 876.402 613.899C1027.65 610.894 1127.1 636.987 1142.46 683.699C1151.36 710.766 1131.3 742.607 1084.43 775.751C1020.98 820.624 915.094 863.715 786.302 897.078C657.579 930.428 521.312 950.087 402.601 952.446C251.356 955.451 151.902 929.358 136.54 882.646C134.593 876.733 134.03 870.601 134.826 864.277V864.263ZM1140.78 701.698C1141.52 695.84 1140.99 690.188 1139.21 684.755C1132.13 663.244 1105.14 645.63 1061.13 633.832C1015.26 621.54 951.414 615.819 876.47 617.314C631.971 622.171 326.958 701.163 196.547 793.379C151.038 825.563 131.411 856.06 139.791 881.549C146.868 903.059 173.861 920.674 217.875 932.472C263.741 944.764 327.589 950.485 402.532 948.989C647.031 944.133 952.045 865.141 1082.46 772.925C1118.27 747.6 1138.06 723.304 1140.78 701.684V701.698Z" fill="url(#paint42_linear_1_72)"/>
<path d="M127.611 849.941C130.999 823.012 153.617 794.065 194.353 764.982C261.766 716.843 371.383 673.355 503.028 642.516C634.605 611.704 772.477 597.203 891.27 601.689C964.32 604.447 1026.55 614.516 1071.24 630.786C1114.88 646.686 1141.95 668.513 1149.57 693.892C1159.43 726.803 1136.98 763.953 1084.65 801.322C1017.24 849.461 907.619 892.949 775.974 923.789C644.398 954.601 506.526 969.101 387.733 964.615C314.682 961.858 252.453 951.788 207.767 935.504C164.123 919.604 137.048 897.778 129.436 872.399C127.255 865.1 126.651 857.596 127.611 849.927V849.941ZM1147.98 715.979C1148.88 708.763 1148.32 701.725 1146.28 694.893C1131.08 644.148 1035.7 610.593 891.133 605.119C646.551 595.872 334.872 668.842 196.342 767.767C156.428 796.274 134.277 824.411 131.013 850.339C130.108 857.555 130.67 864.593 132.714 871.425C147.911 922.17 243.291 955.725 387.856 961.199C632.438 970.445 944.117 897.476 1082.65 798.551C1122.56 770.044 1144.73 741.907 1147.98 715.979Z" fill="url(#paint43_linear_1_72)"/>
<path d="M121.549 834.055C122.962 822.833 126.98 811.378 133.578 799.799C145.881 778.206 167.031 756.503 196.437 735.294C268.103 683.603 381.506 639.881 515.757 612.156C649.953 584.445 788.977 576.035 907.221 588.478C978.585 595.982 1036.81 610.345 1080.26 631.156C1122.01 651.158 1148.07 676.757 1155.64 705.182C1160.87 724.813 1157.43 745.446 1145.41 766.532C1133.11 788.125 1111.96 809.828 1082.55 831.037C1010.89 882.728 897.483 926.45 763.232 954.175C629.036 981.887 490.012 990.296 371.767 977.853C300.404 970.349 242.18 955.986 198.728 935.175C156.977 915.173 130.917 889.574 123.346 861.149C121 852.301 120.397 843.26 121.562 834.055H121.549ZM1154.02 731.837C1155.12 723.071 1154.56 714.456 1152.32 706.06C1145.03 678.623 1119.6 653.792 1078.78 634.243C1036.29 613.898 976.843 599.247 906.865 591.894C663.477 566.295 345.68 631.883 198.44 738.079C169.431 759 148.61 780.333 136.554 801.5C125.005 821.763 121.672 841.545 126.651 860.271C133.948 887.708 159.377 912.539 200.196 932.088C242.687 952.433 302.132 967.084 372.11 974.437C615.498 1000.04 933.295 934.448 1080.54 828.252C1109.54 807.331 1130.36 785.998 1142.42 764.831C1148.79 753.65 1152.67 742.62 1154.02 731.837Z" fill="url(#paint44_linear_1_72)"/>
<path d="M116.72 816.536C118.421 802.954 123.071 789.222 130.628 775.462C144.632 749.973 168.361 724.937 201.196 701.011C277.416 645.478 394.618 601.702 531.214 577.736C667.755 553.797 807.383 552.507 924.379 574.114C992.575 586.708 1048.04 606.01 1089.24 631.485C1128.76 655.918 1153.46 685.66 1160.7 717.515C1166.14 741.385 1161.98 766.065 1148.36 790.854C1134.36 816.344 1110.63 841.38 1077.79 865.305C1001.57 920.838 884.37 964.614 747.774 988.581C611.232 1012.52 471.605 1013.81 354.608 992.203C286.413 979.609 230.946 960.307 189.744 934.831C150.228 910.398 125.526 880.657 118.284 848.802C115.87 838.184 115.349 827.415 116.72 816.536ZM1158.89 749.726C1160.22 739.176 1159.72 728.682 1157.36 718.297C1150.32 687.361 1126.15 658.36 1087.43 634.421C1046.59 609.165 991.519 590.028 923.748 577.503C683.021 533.041 359.793 589.698 203.213 703.796C153.026 740.356 124.84 778.823 120.081 816.618C118.75 827.168 119.258 837.662 121.617 848.047C128.653 878.983 152.821 907.984 191.54 931.923C232.386 957.179 287.456 976.316 355.226 988.842C595.953 1033.3 919.181 976.646 1075.76 862.548C1125.95 825.988 1154.13 787.521 1158.89 749.726Z" fill="url(#paint45_linear_1_72)"/>
<path d="M113.196 797.687C115.294 780.936 120.822 764.159 129.723 747.477C145.785 717.406 172.462 688.5 209.029 661.585C250.053 631.39 301.213 605.283 361.11 584.006C418.909 563.469 482.386 548.269 549.745 538.817C617.103 529.365 684.969 526.141 751.478 529.227C820.345 532.424 884.714 542.301 942.814 558.558C1070.33 594.254 1151.23 657.153 1164.75 731.152C1170.06 760.166 1164.85 789.689 1149.25 818.882C1133.19 848.953 1106.51 877.858 1069.95 904.774C1028.92 934.969 977.762 961.076 917.865 982.353C860.066 1002.89 796.589 1018.09 729.23 1027.54C661.872 1036.99 594.006 1040.22 527.497 1037.13C458.63 1033.94 394.261 1024.07 336.161 1007.8C208.645 972.105 127.748 909.206 114.225 835.207C111.948 822.778 111.605 810.253 113.182 797.701L113.196 797.687ZM1162.35 767.863C1163.87 755.763 1163.57 743.704 1161.38 731.742C1148.1 659.088 1068.09 597.162 941.895 561.837C705.543 495.672 377.693 541.656 211.072 664.328C154.947 705.649 122.454 752.21 116.639 798.455C115.116 810.555 115.418 822.614 117.612 834.576C130.889 907.23 210.894 969.156 337.094 1004.48C573.446 1070.65 901.296 1024.66 1067.92 901.99C1124.04 860.669 1156.53 814.108 1162.35 767.863Z" fill="url(#paint46_linear_1_72)"/>
<path d="M111.015 777.973C113.662 756.86 120.438 735.871 131.274 715.197C149.859 679.789 179.841 646.522 220.413 616.341C264.098 583.841 317.549 556.706 379.284 535.689C438.866 515.399 503.632 501.639 571.772 494.794C639.913 487.934 707.998 488.332 774.15 495.96C842.661 503.862 906.083 519.213 962.661 541.602C1023.45 565.664 1072.29 596.174 1107.83 632.309C1124.92 649.677 1138.69 668.224 1148.76 687.43C1158.77 706.513 1165.19 726.364 1167.84 746.407C1172.49 781.568 1165.71 816.797 1147.72 851.094C1129.13 886.501 1099.15 919.769 1058.58 949.95C1014.89 982.449 961.44 1009.58 899.705 1030.6C840.123 1050.89 775.357 1064.65 707.217 1071.5C639.076 1078.36 570.991 1077.96 504.839 1070.33C436.328 1062.43 372.906 1047.08 316.328 1024.69C255.539 1000.63 206.697 970.116 171.159 933.981C154.069 916.614 140.299 898.066 130.231 878.86C120.219 859.777 113.8 839.927 111.152 819.884C109.301 805.904 109.26 791.898 111.015 777.96V777.973ZM1164.57 787.7C1166.27 774.132 1166.26 760.482 1164.46 746.873C1153.68 665.247 1079.67 591.592 961.413 544.798C731.384 453.775 399.899 487.098 222.484 619.098C143.563 677.8 105.241 748.945 114.554 819.445C125.335 901.07 199.345 974.726 317.604 1021.52C547.633 1112.54 879.118 1079.22 1056.53 947.22C1120.19 899.863 1157.44 844.385 1164.56 787.7H1164.57Z" fill="url(#paint47_linear_1_72)"/>
<path d="M110.109 758.191C119.025 687.252 162.518 619.77 235.843 564.621C282.394 529.611 338.218 501.42 401.764 480.828C463.115 460.95 529.047 448.932 597.736 445.132C666.425 441.332 734.401 445.928 799.798 458.796C867.527 472.13 929.509 493.792 984.002 523.191C1040.77 553.811 1085.83 590.838 1117.94 633.269C1149 674.329 1166.52 718.407 1169.96 764.296C1176.48 850.97 1131.43 935.285 1043.13 1001.68C996.58 1036.69 940.756 1064.88 877.211 1085.48C815.859 1105.35 749.927 1117.37 681.238 1121.17C612.549 1124.97 544.573 1120.38 479.176 1107.51C411.447 1094.17 349.465 1072.51 294.972 1043.11C238.202 1012.49 193.145 975.466 161.036 933.048C129.97 891.989 112.469 847.897 109.012 802.008C107.901 787.316 108.285 772.678 110.109 758.191ZM1165.48 807.66C1167.27 793.407 1167.64 779.016 1166.55 764.556C1159.52 671.133 1094.11 586.489 982.37 526.223C760.9 406.775 426.932 425.226 237.886 567.379C150.571 633.05 106.008 716.281 112.441 801.761C119.464 895.185 184.875 979.829 296.618 1040.09C518.088 1159.54 852.056 1141.09 1041.1 998.939C1113.66 944.38 1156.7 877.68 1165.5 807.66H1165.48Z" fill="url(#paint48_linear_1_72)"/>
<path d="M110.302 739.52C114.856 703.303 126.144 667.978 144.029 634.065C169.39 586.009 207.026 542.795 255.923 505.645C305.561 467.919 363.853 438.643 429.182 418.642C492.248 399.326 559.195 389.421 628.158 389.202C697.122 388.982 764.617 398.448 828.794 417.352C895.261 436.929 955.213 465.806 1007.02 503.203C1059.69 541.231 1100.7 585.707 1128.91 635.409C1156.18 683.466 1170.33 734.225 1170.98 786.287C1171.59 836.703 1159.48 885.815 1134.97 932.28C1109.61 980.337 1071.98 1023.55 1023.08 1060.7C973.441 1098.43 915.149 1127.7 849.82 1147.7C786.755 1167.02 719.808 1176.92 650.844 1177.14C581.881 1177.36 514.385 1167.9 450.209 1148.99C383.741 1129.42 323.789 1100.54 271.985 1063.14C219.316 1025.11 178.305 980.638 150.092 930.936C122.811 882.866 108.656 832.107 108.025 780.045C107.86 766.436 108.615 752.909 110.302 739.506V739.52ZM1165.29 826.455C1166.94 813.203 1167.71 799.813 1167.55 786.301C1166.25 680.242 1108.52 580.686 1005.02 505.961C794.655 354.096 459.535 355.179 257.994 508.361C174.862 571.563 124.676 652.599 113.703 739.863C112.044 753.115 111.276 766.505 111.44 780.017C112.743 886.076 170.473 985.632 273.973 1060.36C484.347 1212.22 819.453 1211.14 1020.99 1057.96C1104.13 994.769 1154.31 913.733 1165.27 826.469L1165.29 826.455Z" fill="url(#paint49_linear_1_72)"/>
<path d="M111.234 723.949C117.42 674.727 132.727 627.274 156.881 582.552C186.575 527.581 228.423 479.113 281.256 438.506C334.227 397.803 395.084 367.43 462.127 348.224C526.88 329.676 594.65 322.268 663.559 326.206C732.467 330.143 799.058 345.233 861.465 371.052C926.094 397.789 983.385 434.912 1031.76 481.404C1080.29 528.048 1116.94 581.317 1140.65 639.717C1163.57 696.155 1173.53 754.953 1170.24 814.506C1166.96 873.702 1150.76 930.661 1122.07 983.78C1092.37 1038.75 1050.52 1087.22 997.691 1127.83C944.72 1168.53 883.863 1198.9 816.82 1218.11C752.067 1236.66 684.297 1244.06 615.388 1240.13C546.48 1236.19 479.889 1221.1 417.482 1195.28C352.853 1168.54 295.562 1131.42 247.186 1084.93C198.659 1038.28 162.01 985.015 138.296 926.614C115.39 870.162 105.432 811.351 108.724 751.812C109.245 742.469 110.082 733.168 111.234 723.949ZM1164.35 842.039C1165.5 832.861 1166.34 823.629 1166.85 814.314C1173.56 692.863 1124.75 575.5 1029.42 483.874C833.046 295.147 498.365 276.009 283.355 441.222C187.618 514.782 128.448 614.475 114.649 724.279C113.497 733.456 112.661 742.689 112.153 752.004C105.446 873.455 154.247 990.818 249.586 1082.44C445.956 1271.17 780.637 1290.31 995.647 1125.1C1091.38 1051.54 1150.57 951.843 1164.37 842.039H1164.35Z" fill="url(#paint50_linear_1_72)"/>
<path d="M112.236 714.511C120.794 646.398 141.985 581.646 175.219 522.025C209.824 459.948 256.06 406.185 312.624 362.244C369.189 318.304 432.707 286.806 501.41 268.615C567.767 251.055 636.141 246.596 704.638 255.363C773.135 264.129 838.299 285.667 898.333 319.401C960.48 354.315 1014.37 400.835 1058.49 457.657C1102.62 514.48 1134.34 578.203 1152.8 647.07C1170.62 713.592 1175.37 782.075 1166.9 850.613C1166.85 851.011 1166.81 851.409 1166.75 851.807C1158.19 919.92 1137 984.672 1103.77 1044.29C1069.16 1106.37 1022.93 1160.13 966.364 1204.07C909.8 1248.01 846.281 1279.51 777.579 1297.7C711.221 1315.26 642.848 1319.72 574.351 1310.97C505.854 1302.2 440.69 1280.66 380.655 1246.93C318.509 1212.02 264.619 1165.5 220.495 1108.67C176.371 1051.85 144.646 988.129 126.185 919.261C108.381 852.726 103.636 784.243 112.098 715.691C112.153 715.293 112.194 714.895 112.249 714.497L112.236 714.511ZM1163.34 851.381C1163.39 850.984 1163.43 850.599 1163.49 850.202C1180.77 710.135 1142.52 571.467 1055.78 459.756C876.703 229.16 544.272 186.632 314.737 364.947C203.858 451.086 133.193 575.349 115.651 714.936C115.596 715.334 115.555 715.718 115.5 716.116C98.2179 856.183 136.472 994.851 223.211 1106.56C402.285 1337.16 734.717 1379.69 964.265 1201.37C1075.14 1115.23 1145.82 990.968 1163.35 851.395L1163.34 851.381Z" fill="url(#paint51_linear_1_72)"/>
</g>
<defs>
<linearGradient id="paint0_linear_1_72" x1="640" y1="-154" x2="640" y2="783" gradientUnits="userSpaceOnUse">
<stop stop-color="#1E308C"/>
<stop offset="1" stop-color="#142149"/>
</linearGradient>
<linearGradient id="paint1_linear_1_72" x1="752.604" y1="792.857" x2="658.13" y2="649.216" gradientUnits="userSpaceOnUse">
<stop stop-color="#0273FC"/>
<stop offset="0.486606" stop-color="#00154C"/>
<stop offset="0.79373" stop-color="#002163"/>
<stop offset="0.896763" stop-color="#0273FC"/>
</linearGradient>
<linearGradient id="paint2_linear_1_72" x1="757.708" y1="793.255" x2="659.504" y2="643.373" gradientUnits="userSpaceOnUse">
<stop stop-color="#0273FC"/>
<stop offset="0.486606" stop-color="#00154C"/>
<stop offset="0.79373" stop-color="#002163"/>
<stop offset="0.896763" stop-color="#0273FC"/>
</linearGradient>
<linearGradient id="paint3_linear_1_72" x1="762.982" y1="793.668" x2="660.913" y2="637.309" gradientUnits="userSpaceOnUse">
<stop stop-color="#0273FC"/>
<stop offset="0.486606" stop-color="#00154C"/>
<stop offset="0.79373" stop-color="#002163"/>
<stop offset="0.896763" stop-color="#0273FC"/>
</linearGradient>
<linearGradient id="paint4_linear_1_72" x1="768.545" y1="794.096" x2="662.504" y2="630.985" gradientUnits="userSpaceOnUse">
<stop stop-color="#0273FC"/>
<stop offset="0.486606" stop-color="#00154C"/>
<stop offset="0.79373" stop-color="#002163"/>
<stop offset="0.896763" stop-color="#0273FC"/>
</linearGradient>
<linearGradient id="paint5_linear_1_72" x1="774.291" y1="794.542" x2="664.181" y2="624.454" gradientUnits="userSpaceOnUse">
<stop stop-color="#0273FC"/>
<stop offset="0.486606" stop-color="#00154C"/>
<stop offset="0.79373" stop-color="#002163"/>
<stop offset="0.896763" stop-color="#0273FC"/>
</linearGradient>
<linearGradient id="paint6_linear_1_72" x1="780.288" y1="794.996" x2="665.998" y2="617.668" gradientUnits="userSpaceOnUse">
<stop stop-color="#0273FC"/>
<stop offset="0.486606" stop-color="#00154C"/>
<stop offset="0.79373" stop-color="#002163"/>
<stop offset="0.896763" stop-color="#0273FC"/>
</linearGradient>
<linearGradient id="paint7_linear_1_72" x1="786.539" y1="795.454" x2="668.005" y2="610.629" gradientUnits="userSpaceOnUse">
<stop stop-color="#0273FC"/>
<stop offset="0.486606" stop-color="#00154C"/>
<stop offset="0.79373" stop-color="#002163"/>
<stop offset="0.896763" stop-color="#0273FC"/>
</linearGradient>
<linearGradient id="paint8_linear_1_72" x1="793.042" y1="795.936" x2="670.112" y2="603.32" gradientUnits="userSpaceOnUse">
<stop stop-color="#0273FC"/>
<stop offset="0.486606" stop-color="#00154C"/>
<stop offset="0.79373" stop-color="#002163"/>
<stop offset="0.896763" stop-color="#0273FC"/>
</linearGradient>
<linearGradient id="paint9_linear_1_72" x1="799.778" y1="796.426" x2="672.425" y2="595.813" gradientUnits="userSpaceOnUse">
<stop stop-color="#0273FC"/>
<stop offset="0.486606" stop-color="#00154C"/>
<stop offset="0.79373" stop-color="#002163"/>
<stop offset="0.896763" stop-color="#0273FC"/>
</linearGradient>
<linearGradient id="paint10_linear_1_72" x1="806.795" y1="796.937" x2="674.923" y2="588.047" gradientUnits="userSpaceOnUse">
<stop stop-color="#0273FC"/>
<stop offset="0.486606" stop-color="#00154C"/>
<stop offset="0.79373" stop-color="#002163"/>
<stop offset="0.896763" stop-color="#0273FC"/>
</linearGradient>
<linearGradient id="paint11_linear_1_72" x1="814.059" y1="797.447" x2="677.585" y2="580.015" gradientUnits="userSpaceOnUse">
<stop stop-color="#0273FC"/>
<stop offset="0.486606" stop-color="#00154C"/>
<stop offset="0.79373" stop-color="#002163"/>
<stop offset="0.896763" stop-color="#0273FC"/>
</linearGradient>
<linearGradient id="paint12_linear_1_72" x1="821.621" y1="797.976" x2="680.559" y2="571.771" gradientUnits="userSpaceOnUse">
<stop stop-color="#0273FC"/>
<stop offset="0.486606" stop-color="#00154C"/>
<stop offset="0.79373" stop-color="#002163"/>
<stop offset="0.896763" stop-color="#0273FC"/>
</linearGradient>
<linearGradient id="paint13_linear_1_72" x1="829.445" y1="798.509" x2="683.739" y2="563.291" gradientUnits="userSpaceOnUse">
<stop stop-color="#0273FC"/>
<stop offset="0.486606" stop-color="#00154C"/>
<stop offset="0.79373" stop-color="#002163"/>
<stop offset="0.896763" stop-color="#0273FC"/>
</linearGradient>
<linearGradient id="paint14_linear_1_72" x1="837.539" y1="799.061" x2="687.175" y2="554.598" gradientUnits="userSpaceOnUse">
<stop stop-color="#0273FC"/>
<stop offset="0.486606" stop-color="#00154C"/>
<stop offset="0.79373" stop-color="#002163"/>
<stop offset="0.896763" stop-color="#0273FC"/>
</linearGradient>
<linearGradient id="paint15_linear_1_72" x1="845.996" y1="799.599" x2="690.978" y2="545.604" gradientUnits="userSpaceOnUse">
<stop stop-color="#0273FC"/>
<stop offset="0.486606" stop-color="#00154C"/>
<stop offset="0.79373" stop-color="#002163"/>
<stop offset="0.896763" stop-color="#0273FC"/>
</linearGradient>
<linearGradient id="paint16_linear_1_72" x1="854.685" y1="800.151" x2="695.072" y2="536.467" gradientUnits="userSpaceOnUse">
<stop stop-color="#0273FC"/>
<stop offset="0.486606" stop-color="#00154C"/>
<stop offset="0.79373" stop-color="#002163"/>
<stop offset="0.896763" stop-color="#0273FC"/>
</linearGradient>
<linearGradient id="paint17_linear_1_72" x1="863.669" y1="800.687" x2="699.506" y2="527.103" gradientUnits="userSpaceOnUse">
<stop stop-color="#0273FC"/>
<stop offset="0.486606" stop-color="#00154C"/>
<stop offset="0.79373" stop-color="#002163"/>
<stop offset="0.896763" stop-color="#0273FC"/>
</linearGradient>
<linearGradient id="paint18_linear_1_72" x1="872.967" y1="801.264" x2="704.429" y2="517.659" gradientUnits="userSpaceOnUse">
<stop stop-color="#0273FC"/>
<stop offset="0.486606" stop-color="#00154C"/>
<stop offset="0.79373" stop-color="#002163"/>
<stop offset="0.896763" stop-color="#0273FC"/>
</linearGradient>
<linearGradient id="paint19_linear_1_72" x1="882.535" y1="801.815" x2="709.637" y2="507.981" gradientUnits="userSpaceOnUse">
<stop stop-color="#0273FC"/>
<stop offset="0.486606" stop-color="#00154C"/>
<stop offset="0.79373" stop-color="#002163"/>
<stop offset="0.896763" stop-color="#0273FC"/>
</linearGradient>
<linearGradient id="paint20_linear_1_72" x1="892.356" y1="802.377" x2="715.202" y2="498.201" gradientUnits="userSpaceOnUse">
<stop stop-color="#0273FC"/>
<stop offset="0.486606" stop-color="#00154C"/>
<stop offset="0.79373" stop-color="#002163"/>
<stop offset="0.896763" stop-color="#0273FC"/>
</linearGradient>
<linearGradient id="paint21_linear_1_72" x1="902.524" y1="802.898" x2="721.526" y2="488.365" gradientUnits="userSpaceOnUse">
<stop stop-color="#0273FC"/>
<stop offset="0.486606" stop-color="#00154C"/>
<stop offset="0.79373" stop-color="#002163"/>
<stop offset="0.896763" stop-color="#0273FC"/>
</linearGradient>
<linearGradient id="paint22_linear_1_72" x1="912.952" y1="803.453" x2="728.113" y2="478.403" gradientUnits="userSpaceOnUse">
<stop stop-color="#0273FC"/>
<stop offset="0.486606" stop-color="#00154C"/>
<stop offset="0.79373" stop-color="#002163"/>
<stop offset="0.896763" stop-color="#0273FC"/>
</linearGradient>
<linearGradient id="paint23_linear_1_72" x1="923.673" y1="803.954" x2="735.445" y2="468.502" gradientUnits="userSpaceOnUse">
<stop stop-color="#0273FC"/>
<stop offset="0.486606" stop-color="#00154C"/>
<stop offset="0.79373" stop-color="#002163"/>
<stop offset="0.896763" stop-color="#0273FC"/>
</linearGradient>
<linearGradient id="paint24_linear_1_72" x1="934.641" y1="804.444" x2="743.441" y2="458.704" gradientUnits="userSpaceOnUse">
<stop stop-color="#0273FC"/>
<stop offset="0.486606" stop-color="#00154C"/>
<stop offset="0.79373" stop-color="#002163"/>
<stop offset="0.896763" stop-color="#0273FC"/>
</linearGradient>
<linearGradient id="paint25_linear_1_72" x1="945.842" y1="804.911" x2="752.08" y2="449.039" gradientUnits="userSpaceOnUse">
<stop stop-color="#0273FC"/>
<stop offset="0.486606" stop-color="#00154C"/>
<stop offset="0.79373" stop-color="#002163"/>
<stop offset="0.896763" stop-color="#0273FC"/>
</linearGradient>
<linearGradient id="paint26_linear_1_72" x1="957.274" y1="805.35" x2="761.399" y2="439.55" gradientUnits="userSpaceOnUse">
<stop stop-color="#0273FC"/>
<stop offset="0.486606" stop-color="#00154C"/>
<stop offset="0.79373" stop-color="#002163"/>
<stop offset="0.896763" stop-color="#0273FC"/>
</linearGradient>
<linearGradient id="paint27_linear_1_72" x1="968.913" y1="805.766" x2="771.402" y2="430.316" gradientUnits="userSpaceOnUse">
<stop stop-color="#0273FC"/>
<stop offset="0.486606" stop-color="#00154C"/>
<stop offset="0.79373" stop-color="#002163"/>
<stop offset="0.896763" stop-color="#0273FC"/>
</linearGradient>
<linearGradient id="paint28_linear_1_72" x1="980.733" y1="806.123" x2="782.254" y2="421.473" gradientUnits="userSpaceOnUse">
<stop stop-color="#0273FC"/>
<stop offset="0.486606" stop-color="#00154C"/>
<stop offset="0.79373" stop-color="#002163"/>
<stop offset="0.896763" stop-color="#0273FC"/>
</linearGradient>
<linearGradient id="paint29_linear_1_72" x1="992.704" y1="806.445" x2="793.851" y2="413.07" gradientUnits="userSpaceOnUse">
<stop stop-color="#0273FC"/>
<stop offset="0.486606" stop-color="#00154C"/>
<stop offset="0.79373" stop-color="#002163"/>
<stop offset="0.896763" stop-color="#0273FC"/>
</linearGradient>
<linearGradient id="paint30_linear_1_72" x1="1004.77" y1="806.726" x2="806.293" y2="405.282" gradientUnits="userSpaceOnUse">
<stop stop-color="#0273FC"/>
<stop offset="0.486606" stop-color="#00154C"/>
<stop offset="0.79373" stop-color="#002163"/>
<stop offset="0.896763" stop-color="#0273FC"/>
</linearGradient>
<linearGradient id="paint31_linear_1_72" x1="1016.95" y1="806.934" x2="819.575" y2="398.126" gradientUnits="userSpaceOnUse">
<stop stop-color="#0273FC"/>
<stop offset="0.486606" stop-color="#00154C"/>
<stop offset="0.79373" stop-color="#002163"/>
<stop offset="0.896763" stop-color="#0273FC"/>
</linearGradient>
<linearGradient id="paint32_linear_1_72" x1="1029.11" y1="807.086" x2="833.514" y2="391.712" gradientUnits="userSpaceOnUse">
<stop stop-color="#0273FC"/>
<stop offset="0.486606" stop-color="#00154C"/>
<stop offset="0.79373" stop-color="#002163"/>
<stop offset="0.896763" stop-color="#0273FC"/>
</linearGradient>
<linearGradient id="paint33_linear_1_72" x1="1041.27" y1="807.194" x2="848.166" y2="386.109" gradientUnits="userSpaceOnUse">
<stop stop-color="#0273FC"/>
<stop offset="0.486606" stop-color="#00154C"/>
<stop offset="0.79373" stop-color="#002163"/>
<stop offset="0.896763" stop-color="#0273FC"/>
</linearGradient>
<linearGradient id="paint34_linear_1_72" x1="1053.31" y1="807.238" x2="863.265" y2="381.315" gradientUnits="userSpaceOnUse">
<stop stop-color="#0273FC"/>
<stop offset="0.486606" stop-color="#00154C"/>
<stop offset="0.79373" stop-color="#002163"/>
<stop offset="0.896763" stop-color="#0273FC"/>
</linearGradient>
<linearGradient id="paint35_linear_1_72" x1="1065.21" y1="807.26" x2="878.591" y2="377.213" gradientUnits="userSpaceOnUse">
<stop stop-color="#0273FC"/>
<stop offset="0.486606" stop-color="#00154C"/>
<stop offset="0.79373" stop-color="#002163"/>
<stop offset="0.896763" stop-color="#0273FC"/>
</linearGradient>
<linearGradient id="paint36_linear_1_72" x1="1076.9" y1="807.262" x2="893.794" y2="373.662" gradientUnits="userSpaceOnUse">
<stop stop-color="#0273FC"/>
<stop offset="0.486606" stop-color="#00154C"/>
<stop offset="0.79373" stop-color="#002163"/>
<stop offset="0.896763" stop-color="#0273FC"/>
</linearGradient>
<linearGradient id="paint37_linear_1_72" x1="1088.2" y1="807.264" x2="908.246" y2="370.261" gradientUnits="userSpaceOnUse">
<stop stop-color="#0273FC"/>
<stop offset="0.486606" stop-color="#00154C"/>
<stop offset="0.79373" stop-color="#002163"/>
<stop offset="0.896763" stop-color="#0273FC"/>
</linearGradient>
<linearGradient id="paint38_linear_1_72" x1="1099.12" y1="807.335" x2="921.338" y2="366.404" gradientUnits="userSpaceOnUse">
<stop stop-color="#0273FC"/>
<stop offset="0.486606" stop-color="#00154C"/>
<stop offset="0.79373" stop-color="#002163"/>
<stop offset="0.896763" stop-color="#0273FC"/>
</linearGradient>
<linearGradient id="paint39_linear_1_72" x1="1109.56" y1="807.545" x2="931.92" y2="360.99" gradientUnits="userSpaceOnUse">
<stop stop-color="#0273FC"/>
<stop offset="0.486606" stop-color="#00154C"/>
<stop offset="0.79373" stop-color="#002163"/>
<stop offset="0.896763" stop-color="#0273FC"/>
</linearGradient>
<linearGradient id="paint40_linear_1_72" x1="1119.29" y1="808.006" x2="938.618" y2="352.884" gradientUnits="userSpaceOnUse">
<stop stop-color="#0273FC"/>
<stop offset="0.486606" stop-color="#00154C"/>
<stop offset="0.79373" stop-color="#002163"/>
<stop offset="0.896763" stop-color="#0273FC"/>
</linearGradient>
<linearGradient id="paint41_linear_1_72" x1="1128.28" y1="808.837" x2="939.617" y2="340.344" gradientUnits="userSpaceOnUse">
<stop stop-color="#0273FC"/>
<stop offset="0.486606" stop-color="#00154C"/>
<stop offset="0.79373" stop-color="#002163"/>
<stop offset="0.896763" stop-color="#0273FC"/>
</linearGradient>
<linearGradient id="paint42_linear_1_72" x1="1136.45" y1="810.196" x2="932.958" y2="322.027" gradientUnits="userSpaceOnUse">
<stop stop-color="#0273FC"/>
<stop offset="0.486606" stop-color="#00154C"/>
<stop offset="0.79373" stop-color="#002163"/>
<stop offset="0.896763" stop-color="#0273FC"/>
</linearGradient>
<linearGradient id="paint43_linear_1_72" x1="1143.64" y1="812.209" x2="915.894" y2="296.724" gradientUnits="userSpaceOnUse">
<stop stop-color="#0273FC"/>
<stop offset="0.486606" stop-color="#00154C"/>
<stop offset="0.79373" stop-color="#002163"/>
<stop offset="0.896763" stop-color="#0273FC"/>
</linearGradient>
<linearGradient id="paint44_linear_1_72" x1="1149.72" y1="815.098" x2="885.668" y2="264.701" gradientUnits="userSpaceOnUse">
<stop stop-color="#0273FC"/>
<stop offset="0.486606" stop-color="#00154C"/>
<stop offset="0.79373" stop-color="#002163"/>
<stop offset="0.896763" stop-color="#0273FC"/>
</linearGradient>
<linearGradient id="paint45_linear_1_72" x1="1154.64" y1="818.927" x2="840.089" y2="227.927" gradientUnits="userSpaceOnUse">
<stop stop-color="#0273FC"/>
<stop offset="0.486606" stop-color="#00154C"/>
<stop offset="0.79373" stop-color="#002163"/>
<stop offset="0.896763" stop-color="#0273FC"/>
</linearGradient>
<linearGradient id="paint46_linear_1_72" x1="1158.33" y1="823.846" x2="777.674" y2="190.277" gradientUnits="userSpaceOnUse">
<stop stop-color="#0273FC"/>
<stop offset="0.486606" stop-color="#00154C"/>
<stop offset="0.79373" stop-color="#002163"/>
<stop offset="0.896763" stop-color="#0273FC"/>
</linearGradient>
<linearGradient id="paint47_linear_1_72" x1="1160.79" y1="829.891" x2="698.095" y2="156.767" gradientUnits="userSpaceOnUse">
<stop stop-color="#0273FC"/>
<stop offset="0.486606" stop-color="#00154C"/>
<stop offset="0.79373" stop-color="#002163"/>
<stop offset="0.896763" stop-color="#0273FC"/>
</linearGradient>
<linearGradient id="paint48_linear_1_72" x1="1162.09" y1="837.246" x2="603.614" y2="133.382" gradientUnits="userSpaceOnUse">
<stop stop-color="#0273FC"/>
<stop offset="0.486606" stop-color="#00154C"/>
<stop offset="0.79373" stop-color="#002163"/>
<stop offset="0.896763" stop-color="#0273FC"/>
</linearGradient>
<linearGradient id="paint49_linear_1_72" x1="1162.5" y1="845.982" x2="498.894" y2="125.114" gradientUnits="userSpaceOnUse">
<stop stop-color="#0273FC"/>
<stop offset="0.486606" stop-color="#00154C"/>
<stop offset="0.79373" stop-color="#002163"/>
<stop offset="0.896763" stop-color="#0273FC"/>
</linearGradient>
<linearGradient id="paint50_linear_1_72" x1="1162.35" y1="856.18" x2="390.071" y2="134.686" gradientUnits="userSpaceOnUse">
<stop stop-color="#0273FC"/>
<stop offset="0.486606" stop-color="#00154C"/>
<stop offset="0.79373" stop-color="#002163"/>
<stop offset="0.896763" stop-color="#0273FC"/>
</linearGradient>
<linearGradient id="paint51_linear_1_72" x1="1162.48" y1="868" x2="283.984" y2="161.539" gradientUnits="userSpaceOnUse">
<stop stop-color="#0273FC"/>
<stop offset="0.486606" stop-color="#00154C"/>
<stop offset="0.79373" stop-color="#002163"/>
<stop offset="0.896763" stop-color="#0273FC"/>
</linearGradient>
</defs>
</svg>
